<?xml version="1.0" standalone="no"?>
<!DOCTYPE svg PUBLIC "-//W3C//DTD SVG 20010904//EN"
 "http://www.w3.org/TR/2001/REC-SVG-20010904/DTD/svg10.dtd">
<svg version="1.0" xmlns="http://www.w3.org/2000/svg"
 width="456.000000pt" height="169.000000pt" viewBox="0 0 456.000000 169.000000"
 preserveAspectRatio="xMidYMid meet">
<metadata>
Created by potrace 1.16, written by Peter Selinger 2001-2019
</metadata>
<g transform="translate(0.000000,169.000000) scale(0.100000,-0.100000)"
fill="#000000" stroke="none">
<path d="M3870 1261 l0 -128 -56 15 c-77 22 -135 6 -187 -50 l-39 -42 4 -86
c3 -84 4 -87 38 -118 19 -18 40 -32 46 -32 7 0 14 -5 16 -11 3 -8 27 -12 65
-11 51 1 66 5 85 24 l23 23 3 -22 c3 -21 9 -23 58 -23 l54 0 0 295 0 295 -55
0 -55 0 0 -129z m-20 -218 c14 -12 20 -30 20 -59 0 -60 -7 -72 -50 -84 -49
-13 -87 1 -96 35 -3 14 -10 25 -15 25 -5 0 -9 9 -9 20 0 11 3 20 8 20 4 0 13
14 20 30 12 27 18 30 58 30 27 0 51 -7 64 -17z"/>
<path d="M248 1349 c-17 -17 -18 -54 -18 -465 0 -414 1 -448 18 -460 22 -17
502 -20 533 -4 19 11 25 43 13 74 -3 8 -22 20 -42 27 -20 7 -42 17 -49 23 -28
25 -40 32 -70 45 -18 7 -33 17 -33 22 0 5 -6 9 -14 9 -8 0 -21 6 -28 13 -7 7
-29 19 -48 27 -45 18 -59 37 -60 80 0 57 10 76 46 90 19 8 34 17 34 21 0 4 9
9 20 12 28 7 25 35 -5 43 -14 3 -25 10 -25 14 0 4 -11 11 -25 14 -50 13 -53
134 -4 164 12 8 36 22 53 32 17 9 51 29 76 44 25 15 53 29 63 33 9 3 17 9 17
13 0 5 13 11 29 15 16 3 32 13 35 21 3 8 12 14 21 14 24 0 19 55 -7 80 -15 14
-35 20 -65 20 -42 0 -43 0 -43 -35 0 -24 -8 -41 -27 -60 -26 -23 -35 -25 -123
-25 -77 0 -101 4 -127 20 -28 17 -33 25 -33 60 l0 40 -47 -1 c-34 0 -53 -6
-65 -20z"/>
<path d="M400 1335 l0 -35 115 0 115 0 0 35 0 35 -115 0 -115 0 0 -35z"/>
<path d="M1260 1085 l0 -285 60 0 60 0 0 115 0 115 90 0 90 0 0 55 0 55 -90 0
-90 0 0 60 0 60 100 0 100 0 0 55 0 55 -160 0 -160 0 0 -285z"/>
<path d="M1641 1344 c-26 -33 -26 -52 -2 -83 24 -32 86 -35 107 -6 53 73 -50
159 -105 89z"/>
<path d="M2270 1085 l0 -285 65 0 65 0 0 105 c0 103 1 105 20 95 11 -6 20 -17
20 -25 0 -7 3 -15 8 -17 4 -2 20 -21 36 -43 17 -22 36 -44 43 -48 7 -4 13 -14
13 -20 0 -30 40 -47 110 -47 39 0 70 2 70 5 0 11 -26 49 -55 80 -75 81 -114
127 -118 138 -4 13 34 47 52 47 6 0 11 7 11 15 0 7 8 18 18 24 14 8 17 23 17
83 0 60 -4 79 -23 106 -41 57 -88 72 -229 72 l-123 0 0 -285z m208 179 c12 -4
25 -17 28 -30 3 -13 10 -24 15 -24 5 0 9 -9 9 -20 0 -11 -4 -20 -10 -20 -5 0
-10 -6 -10 -14 0 -17 -54 -46 -87 -46 -22 0 -23 3 -23 80 l0 80 28 0 c15 0 37
-3 50 -6z"/>
<path d="M837 1256 c-3 -8 -19 -17 -36 -21 -17 -4 -31 -10 -31 -15 0 -4 -8
-10 -17 -13 -19 -6 -75 -38 -83 -48 -3 -3 -20 -12 -37 -20 -18 -8 -33 -17 -33
-21 0 -5 -6 -8 -13 -8 -8 0 -23 -8 -35 -18 -21 -18 -21 -19 -2 -35 11 -9 31
-19 44 -23 14 -3 27 -12 29 -19 3 -7 18 -15 32 -19 15 -4 33 -12 41 -19 34
-30 44 -37 67 -42 14 -4 28 -13 30 -20 3 -7 18 -16 34 -20 15 -3 32 -12 36
-18 6 -9 10 -9 14 1 2 6 9 12 15 12 16 0 118 53 118 61 0 4 14 10 30 14 17 4
30 10 30 15 0 5 16 14 35 21 19 7 35 17 35 21 0 4 6 8 13 8 8 0 22 9 32 20 17
18 16 19 -9 26 -14 3 -26 10 -26 15 0 5 -7 9 -15 9 -9 0 -18 6 -21 14 -3 8
-17 17 -31 21 -15 3 -38 15 -51 26 -14 10 -31 19 -38 19 -8 0 -14 3 -14 8 0 7
-15 17 -77 46 -17 9 -34 20 -38 26 -9 14 -22 12 -28 -4z"/>
<path d="M1988 1141 c-31 -17 -38 -18 -38 -6 0 12 -13 15 -60 15 l-60 0 0
-175 0 -175 60 0 60 0 0 108 c0 138 4 150 45 158 41 7 75 -2 75 -22 0 -8 5
-14 10 -14 6 0 10 -45 10 -115 l0 -115 55 0 55 0 0 139 c0 111 -3 143 -15 155
-8 8 -15 19 -15 24 0 14 -49 33 -100 38 -34 4 -54 0 -82 -15z"/>
<path d="M2838 1144 c-27 -8 -48 -18 -48 -23 0 -5 -11 -19 -25 -32 -13 -13
-25 -32 -25 -41 0 -10 -4 -18 -10 -18 -16 0 -11 -84 7 -121 20 -40 68 -89 88
-89 7 0 15 -5 17 -11 5 -14 153 -14 170 0 7 6 28 22 46 37 17 14 32 29 32 33
0 5 -17 15 -39 23 -32 13 -42 13 -62 2 -31 -17 -100 -18 -121 -1 -9 6 -19 22
-23 34 -6 22 -5 22 122 25 l128 3 -2 33 c-3 82 -36 126 -108 147 -59 18 -86
18 -147 -1z"/>
<path d="M3230 1144 c-44 -19 -66 -43 -90 -100 -21 -48 -26 -99 -11 -109 5 -3
12 -19 16 -36 4 -17 13 -33 21 -36 8 -3 14 -11 14 -19 0 -8 4 -14 9 -14 5 0
17 -7 25 -16 17 -17 133 -23 145 -8 3 5 18 15 34 21 24 11 27 11 27 -7 0 -18
7 -20 55 -20 l55 0 0 175 0 175 -54 0 c-31 0 -56 -5 -58 -11 -3 -8 -18 -6 -51
5 -58 20 -92 20 -137 0z m169 -110 c58 -74 -9 -164 -99 -133 -35 13 -50 35
-50 77 0 75 104 114 149 56z"/>
<path d="M4128 1144 c-50 -18 -58 -30 -58 -99 0 -42 18 -67 59 -80 12 -3 21
-10 21 -15 0 -5 14 -11 30 -15 21 -5 30 -13 30 -26 0 -10 -7 -19 -15 -19 -8 0
-15 -6 -15 -12 0 -9 -3 -10 -8 -2 -4 6 -19 14 -34 17 -14 4 -33 10 -42 13 -11
4 -19 -2 -26 -20 -5 -14 -14 -26 -20 -26 -22 0 -8 -30 18 -36 15 -4 30 -11 33
-16 8 -12 160 -12 168 0 3 5 14 12 24 15 11 4 21 16 24 27 3 11 9 20 14 20 17
0 9 59 -12 94 -13 23 -30 37 -50 41 -16 4 -29 10 -29 15 0 4 -13 10 -29 13
-33 7 -49 35 -24 44 9 3 38 2 64 -4 l49 -9 11 34 c6 19 7 38 3 42 -18 18 -137
20 -186 4z"/>
<path d="M1640 975 l0 -175 55 0 55 0 0 175 0 175 -55 0 -55 0 0 -175z"/>
<path d="M483 1033 c-7 -2 -13 -9 -13 -14 0 -14 51 -59 66 -59 8 0 14 -4 14
-10 0 -5 11 -12 25 -16 14 -3 25 -10 25 -14 0 -5 16 -14 35 -21 19 -7 35 -17
35 -21 0 -4 7 -8 15 -8 9 0 18 -6 21 -14 3 -8 18 -18 34 -21 16 -3 38 -15 51
-26 12 -10 28 -19 36 -19 18 0 17 46 -2 62 -9 7 -21 18 -28 24 -7 6 -29 17
-50 25 -20 7 -37 16 -37 20 0 4 -10 11 -22 15 -12 3 -28 12 -35 18 -31 27 -41
34 -64 41 -13 4 -35 16 -48 26 -24 19 -36 22 -58 12z"/>
<path d="M600 852 c0 -5 -16 -14 -35 -22 -19 -8 -35 -16 -35 -20 0 -11 40 -40
66 -46 14 -4 28 -12 31 -19 2 -7 16 -16 30 -20 14 -3 31 -11 39 -18 34 -30 44
-37 69 -43 15 -4 29 -12 32 -20 2 -7 18 -16 34 -19 16 -4 29 -11 29 -16 0 -5
9 -9 20 -9 11 0 20 5 20 10 0 6 7 10 15 10 9 0 18 6 21 14 3 8 19 18 36 21 16
4 32 13 35 20 2 8 18 17 34 20 16 4 29 11 29 16 0 5 7 9 15 9 9 0 18 6 21 14
3 8 19 18 35 21 16 4 36 13 44 22 13 12 13 16 1 28 -7 8 -25 17 -39 20 -15 4
-31 13 -38 21 -13 15 -59 19 -59 5 0 -5 -15 -14 -32 -22 -18 -7 -35 -15 -38
-18 -9 -10 -44 -31 -77 -46 -18 -9 -33 -20 -33 -25 0 -6 -7 -10 -15 -10 -8 0
-15 4 -15 8 0 5 -16 14 -35 22 -19 8 -35 17 -35 21 0 4 -13 10 -29 14 -16 3
-32 12 -34 20 -3 7 -19 16 -36 20 -17 4 -31 11 -31 16 0 5 -9 9 -20 9 -11 0
-20 -4 -20 -8z"/>
<path d="M483 763 c-7 -2 -13 -9 -13 -14 0 -14 51 -59 66 -59 8 0 14 -4 14 -9
0 -5 15 -15 33 -22 17 -7 38 -19 45 -26 7 -7 20 -13 28 -13 8 0 14 -4 14 -9 0
-5 16 -15 35 -22 19 -7 35 -17 35 -21 0 -4 6 -8 13 -8 8 0 24 -9 37 -20 33
-29 50 -25 50 10 0 23 -6 33 -25 42 -14 6 -25 15 -25 19 0 4 -13 10 -30 14
-16 4 -30 10 -30 15 0 5 -16 14 -35 21 -19 7 -35 17 -35 21 0 4 -7 8 -15 8 -9
0 -18 6 -21 14 -3 8 -19 18 -35 21 -16 4 -29 10 -29 14 0 8 -46 32 -58 30 -4
0 -13 -3 -19 -6z"/>
<path d="M4083 590 c-13 -5 -23 -16 -23 -25 0 -8 -4 -15 -10 -15 -17 0 -11
-58 7 -80 10 -11 30 -20 46 -20 23 0 31 6 40 30 6 17 15 30 19 30 16 0 8 63
-9 76 -21 15 -39 16 -70 4z"/>
<path d="M4222 580 c-5 -14 -13 -53 -17 -88 -4 -34 -11 -65 -16 -68 -12 -7
-11 -44 1 -44 5 0 13 18 16 41 6 36 9 40 30 35 51 -13 72 2 85 60 11 48 10 57
-4 72 -14 13 -22 14 -47 5 -21 -8 -30 -8 -33 1 -3 6 -9 0 -15 -14z"/>
</g>
</svg>
